<?xml version="1.0" encoding="UTF-8"?>
<svg width="600" height="400" viewBox="0 0 600 400" fill="none" xmlns="http://www.w3.org/2000/svg">
  <!-- 背景渐变 -->
  <defs>
    <linearGradient id="bg-gradient" x1="0%" y1="0%" x2="100%" y2="100%">
      <stop offset="0%" stop-color="#5F67EA" stop-opacity="0.1"/>
      <stop offset="100%" stop-color="#5F67EA" stop-opacity="0.3"/>
    </linearGradient>
    <filter id="shadow" x="-20%" y="-20%" width="140%" height="140%">
      <feGaussianBlur in="SourceAlpha" stdDeviation="10"/>
      <feOffset dx="0" dy="10" result="offsetblur"/>
      <feComponentTransfer>
        <feFuncA type="linear" slope="0.2"/>
      </feComponentTransfer>
      <feMerge>
        <feMergeNode/>
        <feMergeNode in="SourceGraphic"/>
      </feMerge>
    </filter>
  </defs>
  
  <!-- 背景 -->
  <rect width="600" height="400" rx="20" fill="url(#bg-gradient)"/>
  
  <!-- 原始图片表示 -->
  <rect x="100" y="100" width="160" height="160" rx="10" fill="#FFFFFF" filter="url(#shadow)"/>
  <rect x="120" y="120" width="120" height="120" rx="5" fill="#F0F0F0"/>
  <circle cx="180" cy="160" r="20" fill="#DDD"/>
  <rect x="140" y="190" width="80" height="10" rx="2" fill="#DDD"/>
  <rect x="160" y="210" width="40" height="10" rx="2" fill="#DDD"/>
  
  <!-- 转换箭头 -->
  <path d="M290 160H310M310 160L300 150M310 160L300 170" stroke="#5F67EA" stroke-width="4" stroke-linecap="round" stroke-linejoin="round"/>
  
  <!-- 魔法效果 -->
  <circle cx="300" cy="160" r="30" fill="#5F67EA" fill-opacity="0.2"/>
  <path d="M285 160H315M300 145V175" stroke="#5F67EA" stroke-width="2" stroke-linecap="round"/>
  <circle cx="300" cy="160" r="15" fill="#5F67EA" fill-opacity="0.3"/>
  
  <!-- 处理后图片表示 -->
  <rect x="340" y="100" width="160" height="160" rx="10" fill="#FFFFFF" filter="url(#shadow)"/>
  <rect x="360" y="120" width="120" height="120" rx="5" fill="#5F67EA" fill-opacity="0.2"/>
  
  <!-- 创意图案 -->
  <circle cx="420" cy="160" r="25" fill="#5F67EA" fill-opacity="0.6"/>
  <path d="M400 180C400 180 410 150 420 150C430 150 440 180 440 180" stroke="#5F67EA" stroke-width="3" stroke-linecap="round"/>
  <rect x="380" y="190" width="80" height="10" rx="2" fill="#5F67EA" fill-opacity="0.4"/>
  <rect x="400" y="210" width="40" height="10" rx="2" fill="#5F67EA" fill-opacity="0.4"/>
  
  <!-- 点缀元素 -->
  <circle cx="150" cy="60" r="10" fill="#5F67EA" fill-opacity="0.3"/>
  <circle cx="450" cy="60" r="10" fill="#5F67EA" fill-opacity="0.3"/>
  <circle cx="150" cy="300" r="10" fill="#5F67EA" fill-opacity="0.3"/>
  <circle cx="450" cy="300" r="10" fill="#5F67EA" fill-opacity="0.3"/>
  
  <!-- 装饰线条 -->
  <path d="M50 320C100 280 200 350 300 320C400 290 500 350 550 300" stroke="#5F67EA" stroke-width="2" stroke-linecap="round" stroke-opacity="0.5"/>
  <path d="M50 340C100 300 200 370 300 340C400 310 500 370 550 320" stroke="#5F67EA" stroke-width="2" stroke-linecap="round" stroke-opacity="0.3"/>
</svg> 